# xmcd
#
# Track frame offsets:
# 150
# 17202
# 34182
# 52043
# 67930
# 84763
# 102912
# 123869
# 142003
# 162772
# 181776
# 204908
# 220011
# 238644
# 251047
#
# Disc length: 3621 seconds
#
# Revision: 0
# Processed by: cddbd v1.4PL0 Copyright (c) Steve Scherf et al.
# Submitted via: Audion 3.0.2 (http://www.panic.com/audion/)
#
DISCID=c30e230f
DTITLE=Varios - Hip Hop americano
DYEAR=1900
DGENRE=
TTITLE0=Independent woman
TTITLE1=wow
TTITLE2=eminem&redman
TTITLE3=no no no
TTITLE4=Amor se paga con amor
TTITLE5=Oh no
TTITLE6=eminem&
TTITLE7=Baby i got your money
TTITLE8=Mrs Jackson
TTITLE9=snoop dog
TTITLE10=Love don't cost a thing
TTITLE11=Guilty conscience
TTITLE12=Snoop doggy dog
TTITLE13=simmi
TTITLE14=ingleses
EXTD=
EXTT0=
EXTT1=
EXTT2=
EXTT3=
EXTT4=
EXTT5=
EXTT6=
EXTT7=
EXTT8=
EXTT9=
EXTT10=
EXTT11=
EXTT12=
EXTT13=
EXTT14=
PLAYORDER=
